<?xml version="1.0" encoding="UTF-8" standalone="no"?>
<svg
   width="28"
   height="13"
   viewBox="0 0 28 13"
   fill="none"
   version="1.1"
   id="svg1"
   xmlns="http://www.w3.org/2000/svg"
   xmlns:svg="http://www.w3.org/2000/svg">
  <defs
     id="defs1" />
  <path
     style="baseline-shift:baseline;display:inline;overflow:visible;vector-effect:none;fill:#000000;enable-background:accumulate;stop-color:#000000;stop-opacity:1;opacity:1"
     d="M 4,0 C 1.796781,0 0,1.796781 0,4 v 5 c 0,2.203219 1.796781,4 4,4 h 17 c 2.203219,0 4,-1.796781 4,-4 V 4 C 25,1.796781 23.203219,0 21,0 Z m 0,1 h 17 c 1.662781,0 3,1.337219 3,3 v 5 c 0,1.662781 -1.337219,3 -3,3 H 4 C 2.337219,12 1,10.662781 1,9 V 4 C 1,2.337219 2.337219,1 4,1 Z"
     id="path1" />
</svg>
